<?xml version="1.0" encoding="UTF-8" standalone="no"?>
<!-- Generator: Adobe Illustrator 27.7.0, SVG Export Plug-In . SVG Version: 6.00 Build 0)  -->

<svg
   version="1.1"
   id="Layer_6"
   x="0px"
   y="0px"
   viewBox="0 0 916.2 499.6"
   style="enable-background:new 0 0 916.2 499.6;"
   xml:space="preserve"
   sodipodi:docname="nasslli2025_logo.svg"
   inkscape:version="1.4.2 (ebf0e940, 2025-05-08)"
   inkscape:export-filename="nasslli2025_logo.png"
   inkscape:export-xdpi="96"
   inkscape:export-ydpi="96"
   xmlns:inkscape="http://www.inkscape.org/namespaces/inkscape"
   xmlns:sodipodi="http://sodipodi.sourceforge.net/DTD/sodipodi-0.dtd"
   xmlns="http://www.w3.org/2000/svg"
   xmlns:svg="http://www.w3.org/2000/svg"><defs
   id="defs10" /><sodipodi:namedview
   id="namedview10"
   pagecolor="#ffffff"
   bordercolor="#000000"
   borderopacity="0.25"
   inkscape:showpageshadow="2"
   inkscape:pageopacity="0.0"
   inkscape:pagecheckerboard="0"
   inkscape:deskcolor="#d1d1d1"
   inkscape:zoom="1.476136"
   inkscape:cx="792.27117"
   inkscape:cy="286.89768"
   inkscape:window-width="1560"
   inkscape:window-height="1028"
   inkscape:window-x="401"
   inkscape:window-y="396"
   inkscape:window-maximized="0"
   inkscape:current-layer="final"
   inkscape:lockguides="false"
   showgrid="true"><sodipodi:guide
     position="0,499.6"
     orientation="0,916.20001"
     id="guide10"
     inkscape:locked="false" /><sodipodi:guide
     position="916.2,499.6"
     orientation="499.60001,0"
     id="guide11"
     inkscape:locked="false" /><sodipodi:guide
     position="916.2,0"
     orientation="0,-916.20001"
     id="guide12"
     inkscape:locked="false" /><sodipodi:guide
     position="0,0"
     orientation="-499.60001,0"
     id="guide13"
     inkscape:locked="false" /></sodipodi:namedview>
<style
   type="text/css"
   id="style1">
	.st0{fill:#B09CFF;}
	.st1{fill:#545F61;}
	.st2{enable-background:new    ;}
</style>
<g
   id="final">
	<g
   id="purple_00000141423826280402353600000013937116737069053597_"
   style="fill:#32006e;fill-opacity:1"
   transform="matrix(1.0100294,0,0,1.0168731,-6.0385816,-3.4639329)">
		<path
   id="right"
   class="st0"
   d="m 852.2,349.1 c -42.4,-42.8 -84.9,-85.4 -127.4,-128 -1.4,-1.4 -2.5,-3.1 -4.2,-5.3 -0.2,-0.2 -1,-1 -2.3,-2.2 L 615.2,358 h -2.4 c -0.8,2.1 -1.7,4.4 -2.7,6.6 h 266.2 c 0,-0.1 -20,-11.4 -24.1,-15.5 z"
   style="fill:#32006e;fill-opacity:1" />
		<path
   id="left"
   class="st0"
   d="m 707.5,203.4 c 0.7,-1 1.5,-2.2 2.8,-4.1 -1.5,-1 -3.2,-1.8 -4.5,-3.1 -29.3,-29.3 -58.6,-58.6 -88,-87.9 -4,-4 -8.1,-7.8 -12.2,-11.7 -0.3,-0.3 -0.6,-0.7 -1,-1 -1.5,0.1 -5.046,-2.257 -5.746,-2.757 -0.5,0.5 -1.854,2.557 -2.354,3.057 -5.2,0.1 -10.3,0.2 -15.1,1.7 -11.4,3.4 -19.9,10.5 -26.5,19.6 -5.599,6.419 -13.7,10.9 -14.9,11.3 -8.911,-11.375 -32,-18.3 -37.6,-20 -8.1,-2.4 -16.5,-4.1 -24.8,-6.1 -10.9,-4.5 -21.7,-9.5 -32.8,-13.4 -6.1,-2.1 -13.1,-2.5 -19.6,-2.1 -7,0.5 -14.1,2.4 -20.9,4.3 -13.3,3.9 -24.4,11 -32.3,22.8 -2.1,3.2 -3.281,5.89 -5.781,8.89 -2.2,1.4 -5.719,3.01 -7.819,4.61 -2.4,1.8 -4.6,3 -6.9,3.1 -0.4,-0.2 -0.8,-0.4 -1.3,-0.6 -11.4,-5.7 -19.6,-15.2 -28.4,-24 -3.3,-3.3 -6.6,-6.6 -10.3,-9.3 -5.3,-3.8 -14.8,-3.1 -19.7,1.2 -1.7,1.5 -9,6.9 -10.6,8.5 -16.3,15.1 -32.2,30.6 -48,46.2 -23,22.5 -45.8,45.2 -68.7,67.9 -28.4,28.1 -56.8,56.3 -85.2,84.5 -15.8,15.7 -31.5,31.4 -47.3,47.1 -2.2,2.2 -4.8,4.1 -6.9,6.4 -0.3,0.3 -0.5,0.6 -0.6,0.9 -1.7,2.7 -0.3,5.4 3.2,6 1.1,0.2 2.3,0 3.5,0 81,-0.2 162,-0.6 243,-0.7 94.7,-0.1 219.6,-0.2 319.6,-0.2 l 3.7,-5.1 h 1.6 c 0.8,-1.5 1.4,-3 1.7,-4.4 0.4,0.9 0.8,1.5 1.2,2 9.8,-14.6 32.5,-48.2 55.9,-82.4 l 50.2,-70.5 c 0,-0.2 -0.3,-0.4 -0.6,-0.7 z"
   style="fill:#32006e;fill-opacity:1" />
	</g>
	<path
   id="lambda"
   class="st1"
   d="m 594.5,367.3 c -1,0 -1.8,-0.50284 -2.3,-1.40796 -0.4,-0.90512 -0.4,-1.9108 0.2,-2.61478 L 706.3,201.66362 683.3,178.43229 683,178.13058 565.4,59.057436 c -0.3,-0.301706 -7.1,-7.240935 -14.4,-9.755148 -2.8,-1.005685 -5.7,-1.40796 -8.7,-1.40796 -7.6,0 -14.1,3.117625 -17.5,4.82729 -1.7,0.804548 -2.9,1.40796 -4,1.40796 -0.5,0 -0.9,-0.100569 -1.4,-0.402274 -0.8,-0.502843 -1.3,-1.307391 -1.3,-2.212508 -0.1,-2.212508 2.8,-6.034112 5.5,-8.850031 3.4,-3.419331 12.8,-11.464814 26.2,-11.464814 0.7,0 1.4,0 2.1,0.100569 4.1,0.301706 8.7,1.709665 13.5,4.425016 4.3,2.413644 8.5,5.531269 12.3,9.352873 l 197.6,199.729111 93.6,94.635 c 0.3,0.3017 7.1,7.24093 14.4,9.75514 2.8,1.00569 5.7,1.40796 8.7,1.40796 7.6,0 14.1,-3.11762 17.5,-4.82729 1.7,-0.80455 2.9,-1.40796 4,-1.40796 0.5,0 0.9,0.10057 1.4,0.40228 0.8,0.50284 1.3,1.30739 1.3,2.21251 0.1,2.2125 -2.8,6.03411 -5.5,8.85003 -3.4,3.41933 -12.8,11.46481 -26.2,11.46481 -0.7,0 -1.4,0 -2.2,-0.10057 -4.1,-0.3017 -8.6,-1.70966 -13.5,-4.42501 -4.3,-2.41365 -8.5,-5.53127 -12.3,-9.35288 L 719.7,215.1398 613,366.19375 c -0.5,0.70398 -1.2,1.10625 -2.1,1.10625 z m 195.9,-87.8969 69.7,70.39797 c 3.5,3.5199 7.2,6.33582 11.1,8.54833 4.2,2.31308 8.1,3.62047 11.4,3.8216 0.7,0 1.3,0.10057 1.9,0.10057 9.3,0 16.2,-4.32444 20.4,-8.04548 l -0.4,-0.80455 c -4.3,1.50853 -8.6,2.21251 -12.7,2.21251 -3.5,0 -7,-0.60341 -10.3,-1.70967 -8.4,-2.91648 -16,-10.66026 -16.3,-11.06253 L 692.5,168.37544 692.2,168.07373 574,48.598308 c -3.5,-3.519899 -7.2,-6.335818 -11.1,-8.548325 -4.2,-2.313077 -8.1,-3.620468 -11.4,-3.821605 -0.6,0 -1.2,-0.100568 -1.9,-0.100568 -8.1,0 -14.5,3.41933 -18.4,6.335817 -0.7,0.502843 -1.4,1.106254 -2.1,1.609097 l 0.4,0.804548 c 4.3,-1.508528 8.6,-2.212507 12.7,-2.212507 3.5,0 7,0.603411 10.3,1.709665 8.4,2.916487 16,10.660265 16.3,11.062539 L 713,201.06021 709.7,205.78693 599.4,362.171 h 10.2 l 106.2,-150.45053 3.3,-4.52558 71.1,71.80594 z"
   sodipodi:nodetypes="scccccccscscccsccccccscscccscccccssccccsccscccccccscccscccccccccc"
   style="stroke-width:1.00284;fill:#313435;fill-opacity:1" />
	<path
   id="mountain"
   class="st1"
   d="M3.1,367.5c-0.8,0-1.6-0.3-2.2-0.9c-1.2-1.2-1.2-3.2,0-4.3l278-274l0,0l7-6.9   C305,62.5,324.7,43,344.3,24c1.8-1.7,3.4-3.6,5-5.4c4-4.5,8.1-9.2,14.1-11.3c1.3-0.4,2.5-0.9,3.8-1.4c6-2.1,12.1-4.4,18.3-5.3   c2.4-0.4,4.8-0.6,7.1-0.6c5.4,0,10.5,1,15.1,3.1c6.8,2.9,14.5,4.3,24.4,4.3c0.5,0,1,0,1.5,0c3.4,0,7.1-0.1,11.3-0.1   c4.5,0,9.1,0,13.6,0s9.1,0,13.6,0c2.1,0,4.3,0,6.4,0h0.8c14.4,0,27.1,2.3,38.7,7c2.6,1,4.9,3,7.2,4.9c1,0.8,2,1.7,3,2.4   c0.2,0.1,0.4,0.5,0.6,0.8c0.1,0.1,0.1,0.2,0.2,0.3c-0.1,0.1-0.1,0.3-0.2,0.4c-0.1,0.2-0.3,0.6-0.4,0.7c-0.4,0-0.8,0.1-1.1,0.1   c-1,0-1.8-0.1-2.4-0.4c-2-0.9-4.1-1.8-6-2.8c-3.7-1.8-7.5-3.6-11.4-4.7c-7.8-2.2-14.6-3.3-20.9-3.4c-1.8,0-3.6,0-5.4,0   c-10.7,0-21.5,0.3-32,0.6c-4.3,0.1-8.6,0.2-12.9,0.3c-0.5,0-1.1,0-1.6,0c-12.4,0-24.1-3.4-34.1-6.6c-2.7-0.8-5.7-1.3-9.3-1.3   c-3.9,0-8,0.5-11.9,1c-1.2,0.1-2.3,0.3-3.4,0.4c-6.5,0.7-11.3,4.9-15.3,8.8c-9.4,9.5-19.1,18.9-28.6,28   c-5.8,5.6-11.9,11.5-17.8,17.3C305.2,70.1,8,363.3,5,366.3C4.6,367.1,3.9,367.5,3.1,367.5z"
   style="fill:#313435;fill-opacity:1" />
	<g
   class="st2"
   id="g10"
   transform="translate(-12.350316,-29.450754)">
		
		
		
		
		
		
		
		
		
		
	<text
   xml:space="preserve"
   style="font-size:112px;text-align:start;writing-mode:lr-tb;direction:ltr;text-anchor:start;fill:#313435;fill-opacity:1"
   x="45.063602"
   y="496.84183"
   id="text10"><tspan
     sodipodi:role="line"
     id="tspan10"
     x="45.063602"
     y="496.84183"
     style="font-style:normal;font-variant:normal;font-weight:bold;font-stretch:normal;font-size:112px;font-family:'Open Sans';-inkscape-font-specification:'Open Sans Bold';fill:#313435;fill-opacity:1">N A S S L L I  '25</tspan></text></g>
</g>
</svg>
